<mxfile host="app.diagrams.net" modified="2023-11-08T19:15:03.806Z" agent="Mozilla/5.0 (Windows NT 10.0; Win64; x64) AppleWebKit/537.36 (KHTML, like Gecko) Chrome/119.0.0.0 Safari/537.36" etag="VlDVZDeeGGANKr8FfDlH" version="22.0.8" type="device">
  <diagram name="Page-1" id="BMmYorDSqovkO62SPQia">
    <mxGraphModel dx="838" dy="491" grid="1" gridSize="10" guides="1" tooltips="1" connect="1" arrows="1" fold="1" page="1" pageScale="1" pageWidth="850" pageHeight="1100" math="0" shadow="0">
      <root>
        <mxCell id="0" />
        <mxCell id="1" parent="0" />
        <mxCell id="MD6hDJErcB_d-3zCub33-3" value="" style="edgeStyle=orthogonalEdgeStyle;rounded=0;orthogonalLoop=1;jettySize=auto;html=1;" edge="1" parent="1" source="MD6hDJErcB_d-3zCub33-1" target="MD6hDJErcB_d-3zCub33-2">
          <mxGeometry relative="1" as="geometry" />
        </mxCell>
        <mxCell id="MD6hDJErcB_d-3zCub33-1" value="START" style="rounded=1;whiteSpace=wrap;html=1;" vertex="1" parent="1">
          <mxGeometry x="80" y="110" width="120" height="60" as="geometry" />
        </mxCell>
        <mxCell id="MD6hDJErcB_d-3zCub33-2" value="STOP" style="rounded=1;whiteSpace=wrap;html=1;" vertex="1" parent="1">
          <mxGeometry x="80" y="240" width="120" height="60" as="geometry" />
        </mxCell>
        <mxCell id="MD6hDJErcB_d-3zCub33-8" value="" style="edgeStyle=orthogonalEdgeStyle;rounded=0;orthogonalLoop=1;jettySize=auto;html=1;" edge="1" parent="1" source="MD6hDJErcB_d-3zCub33-5" target="MD6hDJErcB_d-3zCub33-7">
          <mxGeometry relative="1" as="geometry" />
        </mxCell>
        <mxCell id="MD6hDJErcB_d-3zCub33-5" value="START" style="rounded=1;whiteSpace=wrap;html=1;" vertex="1" parent="1">
          <mxGeometry x="305" y="100" width="120" height="60" as="geometry" />
        </mxCell>
        <mxCell id="MD6hDJErcB_d-3zCub33-6" value="STOP" style="rounded=1;whiteSpace=wrap;html=1;" vertex="1" parent="1">
          <mxGeometry x="305" y="320" width="120" height="60" as="geometry" />
        </mxCell>
        <mxCell id="MD6hDJErcB_d-3zCub33-9" value="" style="edgeStyle=orthogonalEdgeStyle;rounded=0;orthogonalLoop=1;jettySize=auto;html=1;" edge="1" parent="1" source="MD6hDJErcB_d-3zCub33-7" target="MD6hDJErcB_d-3zCub33-6">
          <mxGeometry relative="1" as="geometry" />
        </mxCell>
        <mxCell id="MD6hDJErcB_d-3zCub33-7" value="&quot;Hello Itay&quot;" style="shape=document;whiteSpace=wrap;html=1;boundedLbl=1;" vertex="1" parent="1">
          <mxGeometry x="315" y="210" width="100" height="60" as="geometry" />
        </mxCell>
        <mxCell id="MD6hDJErcB_d-3zCub33-10" value="1 Program&lt;br&gt;does&lt;br&gt;nothing" style="text;html=1;strokeColor=none;fillColor=none;align=center;verticalAlign=middle;whiteSpace=wrap;rounded=0;" vertex="1" parent="1">
          <mxGeometry x="110" y="360" width="60" height="30" as="geometry" />
        </mxCell>
        <mxCell id="MD6hDJErcB_d-3zCub33-11" value="2 Program&lt;br&gt;prints hello + my name" style="text;html=1;align=center;verticalAlign=middle;resizable=0;points=[];autosize=1;strokeColor=none;fillColor=none;" vertex="1" parent="1">
          <mxGeometry x="280" y="413" width="140" height="40" as="geometry" />
        </mxCell>
        <mxCell id="MD6hDJErcB_d-3zCub33-18" value="" style="edgeStyle=orthogonalEdgeStyle;rounded=0;orthogonalLoop=1;jettySize=auto;html=1;" edge="1" parent="1" source="MD6hDJErcB_d-3zCub33-12" target="MD6hDJErcB_d-3zCub33-16">
          <mxGeometry relative="1" as="geometry" />
        </mxCell>
        <mxCell id="MD6hDJErcB_d-3zCub33-12" value="START" style="rounded=1;whiteSpace=wrap;html=1;" vertex="1" parent="1">
          <mxGeometry x="535" y="100" width="120" height="60" as="geometry" />
        </mxCell>
        <mxCell id="MD6hDJErcB_d-3zCub33-13" value="STOP" style="rounded=1;whiteSpace=wrap;html=1;" vertex="1" parent="1">
          <mxGeometry x="535" y="320" width="120" height="60" as="geometry" />
        </mxCell>
        <mxCell id="MD6hDJErcB_d-3zCub33-15" value="3 Program&lt;br&gt;input my name" style="text;html=1;align=center;verticalAlign=middle;resizable=0;points=[];autosize=1;strokeColor=none;fillColor=none;" vertex="1" parent="1">
          <mxGeometry x="530" y="413" width="100" height="40" as="geometry" />
        </mxCell>
        <mxCell id="MD6hDJErcB_d-3zCub33-19" value="" style="edgeStyle=orthogonalEdgeStyle;rounded=0;orthogonalLoop=1;jettySize=auto;html=1;" edge="1" parent="1" source="MD6hDJErcB_d-3zCub33-16" target="MD6hDJErcB_d-3zCub33-13">
          <mxGeometry relative="1" as="geometry" />
        </mxCell>
        <mxCell id="MD6hDJErcB_d-3zCub33-16" value="my_name" style="shape=card;whiteSpace=wrap;html=1;" vertex="1" parent="1">
          <mxGeometry x="540" y="210" width="110" height="50" as="geometry" />
        </mxCell>
      </root>
    </mxGraphModel>
  </diagram>
</mxfile>
